<svg width="296" height="253" viewBox="0 0 296 253" fill="none" xmlns="http://www.w3.org/2000/svg">
<path d="M38.8804 20.1617V201.602H290.79" stroke="white" stroke-width="3.24"/>
<line x1="38.8804" y1="189.856" x2="285.12" y2="189.856" stroke="white" stroke-width="0.81"/>
<line x1="38.8804" y1="152.597" x2="285.12" y2="152.597" stroke="white" stroke-width="0.81"/>
<line x1="37.2598" y1="116.957" x2="283.5" y2="116.957" stroke="white" stroke-width="0.81"/>
<line x1="53.865" y1="201.601" x2="53.865" y2="15.3012" stroke="white" stroke-width="0.81"/>
<line x1="104.085" y1="201.601" x2="104.085" y2="15.3012" stroke="white" stroke-width="0.81"/>
<line x1="154.304" y1="201.601" x2="154.304" y2="15.3012" stroke="white" stroke-width="0.81"/>
<line x1="206.145" y1="201.601" x2="206.145" y2="15.3012" stroke="white" stroke-width="0.81"/>
<line x1="260.415" y1="201.601" x2="260.415" y2="15.3012" stroke="white" stroke-width="0.81"/>
<line x1="37.2598" y1="82.1268" x2="283.5" y2="82.1268" stroke="white" stroke-width="0.81"/>
<line x1="38.8804" y1="48.1063" x2="285.12" y2="48.1063" stroke="white" stroke-width="0.81"/>
<path d="M15.1688 151.286V150.527C15.5327 150.566 15.8583 150.671 16.1457 150.839C16.4331 151.008 16.6612 151.247 16.8299 151.555C16.996 151.864 17.0791 152.249 17.0791 152.71C17.0791 153.048 17.0158 153.355 16.8893 153.632C16.7627 153.906 16.5834 154.142 16.3514 154.34C16.1167 154.537 15.8359 154.69 15.5089 154.798C15.1793 154.904 14.8128 154.957 14.4094 154.957H13.8359C13.4325 154.957 13.0673 154.904 12.7404 154.798C12.4108 154.69 12.1287 154.536 11.894 154.336C11.6593 154.133 11.4787 153.889 11.3521 153.604C11.2256 153.319 11.1623 152.999 11.1623 152.643C11.1623 152.208 11.244 151.84 11.4075 151.539C11.571 151.239 11.7978 151.006 12.0878 150.839C12.3752 150.671 12.7087 150.566 13.0884 150.527V151.286C12.8195 151.323 12.5888 151.392 12.3963 151.492C12.2012 151.592 12.0509 151.735 11.9454 151.919C11.8399 152.104 11.7872 152.345 11.7872 152.643C11.7872 152.899 11.836 153.124 11.9335 153.319C12.0311 153.512 12.1695 153.674 12.3488 153.806C12.5281 153.935 12.743 154.032 12.9935 154.098C13.244 154.164 13.5222 154.197 13.828 154.197H14.4094C14.6916 154.197 14.9565 154.168 15.2044 154.11C15.4522 154.05 15.6698 153.959 15.857 153.837C16.0442 153.716 16.1918 153.562 16.3 153.375C16.4054 153.187 16.4582 152.966 16.4582 152.71C16.4582 152.386 16.4067 152.127 16.3039 151.935C16.2011 151.742 16.0534 151.597 15.8609 151.5C15.6685 151.4 15.4377 151.329 15.1688 151.286ZM14.9078 149.791H14.8168C14.5083 149.791 14.2222 149.746 13.9585 149.657C13.6922 149.567 13.4615 149.438 13.2664 149.269C13.0687 149.1 12.9157 148.896 12.8076 148.656C12.6969 148.416 12.6415 148.147 12.6415 147.849C12.6415 147.549 12.6969 147.279 12.8076 147.039C12.9157 146.796 13.0687 146.59 13.2664 146.422C13.4615 146.25 13.6922 146.12 13.9585 146.03C14.2222 145.94 14.5083 145.896 14.8168 145.896H14.9078C15.2163 145.896 15.5023 145.94 15.766 146.03C16.0297 146.12 16.2604 146.25 16.4582 146.422C16.6533 146.59 16.8062 146.795 16.9169 147.035C17.025 147.272 17.0791 147.541 17.0791 147.841C17.0791 148.142 17.025 148.412 16.9169 148.652C16.8062 148.892 16.6533 149.098 16.4582 149.269C16.2604 149.438 16.0297 149.567 15.766 149.657C15.5023 149.746 15.2163 149.791 14.9078 149.791ZM14.8168 149.06H14.9078C15.1213 149.06 15.323 149.035 15.5129 148.984C15.7001 148.934 15.8662 148.859 16.0112 148.759C16.1563 148.656 16.2709 148.528 16.3553 148.375C16.4371 148.222 16.4779 148.044 16.4779 147.841C16.4779 147.641 16.4371 147.466 16.3553 147.315C16.2709 147.162 16.1563 147.036 16.0112 146.936C15.8662 146.836 15.7001 146.76 15.5129 146.71C15.323 146.658 15.1213 146.631 14.9078 146.631H14.8168C14.6059 146.631 14.4068 146.658 14.2196 146.71C14.0297 146.76 13.8623 146.837 13.7173 146.94C13.5696 147.04 13.4536 147.166 13.3692 147.319C13.2849 147.47 13.2427 147.646 13.2427 147.849C13.2427 148.05 13.2849 148.226 13.3692 148.379C13.4536 148.53 13.5696 148.656 13.7173 148.759C13.8623 148.859 14.0297 148.934 14.2196 148.984C14.4068 149.035 14.6059 149.06 14.8168 149.06ZM13.6342 144.246H17V144.978H12.7206V144.286L13.6342 144.246ZM14.6981 144.42L14.6863 144.725C14.3936 144.722 14.1233 144.679 13.8755 144.594C13.625 144.51 13.4075 144.391 13.2229 144.238C13.0383 144.085 12.8959 143.904 12.7958 143.693C12.6929 143.479 12.6415 143.243 12.6415 142.985C12.6415 142.774 12.6705 142.584 12.7285 142.415C12.7839 142.246 12.8735 142.103 12.9975 141.984C13.1214 141.863 13.2822 141.77 13.48 141.707C13.6751 141.644 13.9137 141.612 14.1958 141.612H17V142.348H14.1879C13.9638 142.348 13.7845 142.381 13.65 142.447C13.5129 142.513 13.4141 142.609 13.3534 142.735C13.2901 142.862 13.2585 143.018 13.2585 143.202C13.2585 143.384 13.2967 143.55 13.3732 143.7C13.4497 143.848 13.5551 143.976 13.6896 144.084C13.8241 144.19 13.9783 144.273 14.1523 144.333C14.3237 144.391 14.5057 144.42 14.6981 144.42ZM16.4779 138.788C16.4779 138.614 16.4423 138.453 16.3711 138.306C16.3 138.158 16.2024 138.037 16.0785 137.942C15.9519 137.847 15.8082 137.793 15.6474 137.78V137.084C15.9005 137.097 16.1365 137.183 16.3553 137.341C16.5715 137.496 16.7469 137.701 16.8813 137.954C17.0132 138.207 17.0791 138.485 17.0791 138.788C17.0791 139.11 17.0224 139.391 16.909 139.631C16.7957 139.868 16.6401 140.066 16.4423 140.224C16.2446 140.38 16.0178 140.497 15.7621 140.576C15.5037 140.652 15.2308 140.691 14.9434 140.691H14.7772C14.4898 140.691 14.2183 140.652 13.9625 140.576C13.7041 140.497 13.476 140.38 13.2783 140.224C13.0805 140.066 12.925 139.868 12.8116 139.631C12.6982 139.391 12.6415 139.11 12.6415 138.788C12.6415 138.453 12.7101 138.161 12.8472 137.91C12.9816 137.66 13.1662 137.463 13.4009 137.321C13.6329 137.176 13.8966 137.097 14.1919 137.084V137.78C14.0152 137.793 13.8557 137.843 13.7133 137.93C13.5709 138.014 13.4576 138.13 13.3732 138.278C13.2862 138.423 13.2427 138.593 13.2427 138.788C13.2427 139.012 13.2875 139.201 13.3771 139.354C13.4642 139.504 13.5828 139.624 13.7331 139.714C13.8808 139.801 14.0456 139.864 14.2275 139.904C14.4068 139.941 14.59 139.959 14.7772 139.959H14.9434C15.1306 139.959 15.3151 139.941 15.4971 139.904C15.679 139.867 15.8438 139.805 15.9915 139.718C16.1391 139.628 16.2578 139.508 16.3474 139.358C16.4344 139.205 16.4779 139.015 16.4779 138.788ZM17.0791 134.485C17.0791 134.783 17.029 135.053 16.9288 135.296C16.826 135.536 16.6823 135.743 16.4977 135.917C16.3131 136.088 16.0943 136.22 15.8412 136.312C15.588 136.405 15.3112 136.451 15.0106 136.451H14.8445C14.4964 136.451 14.1866 136.399 13.915 136.297C13.6408 136.194 13.4088 136.054 13.2189 135.877C13.0291 135.701 12.8854 135.5 12.7878 135.276C12.6903 135.052 12.6415 134.82 12.6415 134.58C12.6415 134.274 12.6942 134.011 12.7997 133.789C12.9052 133.565 13.0528 133.382 13.2427 133.239C13.4299 133.097 13.6514 132.991 13.9071 132.923C14.1603 132.854 14.4371 132.82 14.7377 132.82H15.066V136.016H14.4688V133.552H14.4134C14.2235 133.562 14.039 133.602 13.8597 133.67C13.6804 133.736 13.5327 133.842 13.4167 133.987C13.3007 134.132 13.2427 134.33 13.2427 134.58C13.2427 134.746 13.2783 134.899 13.3495 135.039C13.418 135.179 13.5208 135.299 13.658 135.399C13.7951 135.499 13.9625 135.577 14.1603 135.632C14.358 135.687 14.5861 135.715 14.8445 135.715H15.0106C15.2136 135.715 15.4048 135.687 15.5841 135.632C15.7607 135.574 15.9163 135.491 16.0508 135.383C16.1853 135.272 16.2907 135.139 16.3672 134.983C16.4437 134.825 16.4819 134.646 16.4819 134.446C16.4819 134.187 16.4292 133.968 16.3237 133.789C16.2182 133.61 16.0771 133.453 15.9005 133.318L16.2525 132.875C16.3922 132.968 16.5254 133.085 16.652 133.227C16.7785 133.37 16.8813 133.545 16.9604 133.753C17.0396 133.959 17.0791 134.203 17.0791 134.485ZM13.6342 131.234H17V131.966H12.7206V131.274L13.6342 131.234ZM14.6981 131.408L14.6863 131.713C14.3936 131.71 14.1233 131.667 13.8755 131.582C13.625 131.498 13.4075 131.379 13.2229 131.226C13.0383 131.073 12.8959 130.891 12.7958 130.68C12.6929 130.467 12.6415 130.231 12.6415 129.972C12.6415 129.761 12.6705 129.572 12.7285 129.403C12.7839 129.234 12.8735 129.09 12.9975 128.972C13.1214 128.85 13.2822 128.758 13.48 128.695C13.6751 128.632 13.9137 128.6 14.1958 128.6H17V129.336H14.1879C13.9638 129.336 13.7845 129.369 13.65 129.435C13.5129 129.5 13.4141 129.597 13.3534 129.723C13.2901 129.85 13.2585 130.005 13.2585 130.19C13.2585 130.372 13.2967 130.538 13.3732 130.688C13.4497 130.836 13.5551 130.964 13.6896 131.072C13.8241 131.177 13.9783 131.26 14.1523 131.321C14.3237 131.379 14.5057 131.408 14.6981 131.408ZM12.7206 125.697H13.2822V128.011H12.7206V125.697ZM11.6804 127.228V126.496H15.94C16.0851 126.496 16.1945 126.473 16.2683 126.429C16.3421 126.384 16.3909 126.326 16.4146 126.255C16.4384 126.183 16.4502 126.107 16.4502 126.025C16.4502 125.965 16.445 125.901 16.4344 125.835C16.4212 125.767 16.4107 125.715 16.4028 125.681L17 125.677C17.0185 125.735 17.0356 125.812 17.0514 125.907C17.0699 125.999 17.0791 126.111 17.0791 126.243C17.0791 126.422 17.0435 126.587 16.9723 126.737C16.9011 126.887 16.7825 127.007 16.6164 127.097C16.4476 127.184 16.2208 127.228 15.9361 127.228H11.6804ZM13.393 124.107H17V124.839H12.7206V124.127L13.393 124.107ZM12.6969 122.77L13.3771 122.774C13.364 122.835 13.3561 122.893 13.3534 122.948C13.3481 123.001 13.3455 123.062 13.3455 123.13C13.3455 123.299 13.3719 123.448 13.4246 123.577C13.4773 123.706 13.5512 123.816 13.6461 123.905C13.741 123.995 13.8544 124.066 13.9862 124.119C14.1154 124.169 14.2578 124.202 14.4134 124.218L14.532 124.423C14.2736 124.423 14.0311 124.398 13.8043 124.348C13.5775 124.296 13.3771 124.215 13.2031 124.107C13.0265 123.999 12.8894 123.862 12.7918 123.696C12.6916 123.527 12.6415 123.327 12.6415 123.095C12.6415 123.042 12.6481 122.981 12.6613 122.913C12.6718 122.844 12.6837 122.797 12.6969 122.77ZM16.2683 119.729H14.0653C13.8966 119.729 13.7502 119.763 13.6263 119.832C13.4998 119.898 13.4022 119.998 13.3336 120.132C13.2651 120.267 13.2308 120.433 13.2308 120.631C13.2308 120.815 13.2625 120.977 13.3257 121.117C13.389 121.254 13.4721 121.362 13.5749 121.441C13.6777 121.518 13.7885 121.556 13.9071 121.556V122.288C13.7542 122.288 13.6026 122.248 13.4523 122.169C13.302 122.09 13.1662 121.977 13.0449 121.829C12.921 121.679 12.8234 121.499 12.7522 121.291C12.6784 121.08 12.6415 120.845 12.6415 120.587C12.6415 120.276 12.6942 120.002 12.7997 119.764C12.9052 119.524 13.0647 119.337 13.2783 119.203C13.4892 119.066 13.7542 118.997 14.0732 118.997H16.0666C16.209 118.997 16.3606 118.985 16.5214 118.961C16.6823 118.935 16.8207 118.897 16.9367 118.847H17V119.61C16.9156 119.647 16.8036 119.676 16.6638 119.697C16.5214 119.718 16.3896 119.729 16.2683 119.729ZM14.4055 119.602L14.9196 119.594V120.334C14.9196 120.542 14.9368 120.728 14.971 120.892C15.0027 121.055 15.0515 121.192 15.1174 121.303C15.1833 121.414 15.2664 121.498 15.3666 121.556C15.4641 121.614 15.5788 121.643 15.7106 121.643C15.8451 121.643 15.9677 121.613 16.0785 121.552C16.1892 121.491 16.2775 121.4 16.3435 121.279C16.4067 121.155 16.4384 121.004 16.4384 120.824C16.4384 120.6 16.3909 120.402 16.296 120.231C16.2011 120.06 16.0851 119.924 15.9479 119.824C15.8108 119.721 15.6777 119.665 15.5485 119.658L15.9005 119.345C16.0112 119.364 16.1338 119.414 16.2683 119.495C16.4028 119.577 16.532 119.687 16.6559 119.824C16.7772 119.958 16.8787 120.119 16.9604 120.306C17.0396 120.491 17.0791 120.699 17.0791 120.931C17.0791 121.221 17.0224 121.476 16.909 121.694C16.7957 121.911 16.644 122.079 16.4542 122.201C16.2617 122.319 16.0468 122.379 15.8095 122.379C15.5801 122.379 15.3784 122.334 15.2044 122.244C15.0277 122.155 14.8814 122.025 14.7654 121.857C14.6467 121.688 14.5571 121.485 14.4964 121.248C14.4358 121.01 14.4055 120.745 14.4055 120.453V119.602ZM12.7206 116.054H13.2822V118.368H12.7206V116.054ZM11.6804 117.585V116.853H15.94C16.0851 116.853 16.1945 116.831 16.2683 116.786C16.3421 116.741 16.3909 116.683 16.4146 116.612C16.4384 116.541 16.4502 116.464 16.4502 116.383C16.4502 116.322 16.445 116.259 16.4344 116.193C16.4212 116.124 16.4107 116.073 16.4028 116.039L17 116.035C17.0185 116.093 17.0356 116.169 17.0514 116.264C17.0699 116.356 17.0791 116.468 17.0791 116.6C17.0791 116.78 17.0435 116.944 16.9723 117.095C16.9011 117.245 16.7825 117.365 16.6164 117.455C16.4476 117.542 16.2208 117.585 15.9361 117.585H11.6804ZM12.7206 114.401H17V115.137H12.7206V114.401ZM11.5855 115.192C11.4668 115.192 11.3667 115.157 11.2849 115.085C11.2032 115.012 11.1623 114.904 11.1623 114.761C11.1623 114.621 11.2032 114.515 11.2849 114.441C11.3667 114.364 11.4668 114.326 11.5855 114.326C11.6989 114.326 11.7964 114.364 11.8782 114.441C11.9573 114.515 11.9968 114.621 11.9968 114.761C11.9968 114.904 11.9573 115.012 11.8782 115.085C11.7964 115.157 11.6989 115.192 11.5855 115.192ZM14.9078 113.42H14.8168C14.5083 113.42 14.2222 113.376 13.9585 113.286C13.6922 113.196 13.4615 113.067 13.2664 112.898C13.0687 112.73 12.9157 112.525 12.8076 112.285C12.6969 112.045 12.6415 111.776 12.6415 111.478C12.6415 111.178 12.6969 110.908 12.8076 110.668C12.9157 110.425 13.0687 110.219 13.2664 110.051C13.4615 109.879 13.6922 109.749 13.9585 109.659C14.2222 109.569 14.5083 109.525 14.8168 109.525H14.9078C15.2163 109.525 15.5023 109.569 15.766 109.659C16.0297 109.749 16.2604 109.879 16.4582 110.051C16.6533 110.219 16.8062 110.424 16.9169 110.664C17.025 110.901 17.0791 111.17 17.0791 111.471C17.0791 111.771 17.025 112.041 16.9169 112.281C16.8062 112.521 16.6533 112.727 16.4582 112.898C16.2604 113.067 16.0297 113.196 15.766 113.286C15.5023 113.376 15.2163 113.42 14.9078 113.42ZM14.8168 112.689H14.9078C15.1213 112.689 15.323 112.664 15.5129 112.614C15.7001 112.563 15.8662 112.488 16.0112 112.388C16.1563 112.285 16.2709 112.157 16.3553 112.004C16.4371 111.852 16.4779 111.674 16.4779 111.471C16.4779 111.27 16.4371 111.095 16.3553 110.945C16.2709 110.792 16.1563 110.665 16.0112 110.565C15.8662 110.465 15.7001 110.389 15.5129 110.339C15.323 110.287 15.1213 110.26 14.9078 110.26H14.8168C14.6059 110.26 14.4068 110.287 14.2196 110.339C14.0297 110.389 13.8623 110.466 13.7173 110.569C13.5696 110.669 13.4536 110.796 13.3692 110.948C13.2849 111.099 13.2427 111.275 13.2427 111.478C13.2427 111.679 13.2849 111.856 13.3692 112.008C13.4536 112.159 13.5696 112.285 13.7173 112.388C13.8623 112.488 14.0297 112.563 14.2196 112.614C14.4068 112.664 14.6059 112.689 14.8168 112.689ZM13.6342 107.875H17V108.607H12.7206V107.915L13.6342 107.875ZM14.6981 108.049L14.6863 108.354C14.3936 108.351 14.1233 108.308 13.8755 108.223C13.625 108.139 13.4075 108.02 13.2229 107.867C13.0383 107.715 12.8959 107.533 12.7958 107.322C12.6929 107.108 12.6415 106.872 12.6415 106.614C12.6415 106.403 12.6705 106.213 12.7285 106.044C12.7839 105.875 12.8735 105.732 12.9975 105.613C13.1214 105.492 13.2822 105.4 13.48 105.336C13.6751 105.273 13.9137 105.241 14.1958 105.241H17V105.977H14.1879C13.9638 105.977 13.7845 106.01 13.65 106.076C13.5129 106.142 13.4141 106.238 13.3534 106.365C13.2901 106.491 13.2585 106.647 13.2585 106.831C13.2585 107.013 13.2967 107.179 13.3732 107.33C13.4497 107.477 13.5551 107.605 13.6896 107.713C13.8241 107.819 13.9783 107.902 14.1523 107.962C14.3237 108.02 14.5057 108.049 14.6981 108.049ZM14.6981 102.148H14.6586C14.0838 102.148 13.5644 102.084 13.1003 101.955C12.6336 101.825 12.2249 101.661 11.8742 101.46C11.5235 101.26 11.2335 101.049 11.0041 100.827C10.7721 100.606 10.6046 100.402 10.5018 100.214L10.9843 100.06C11.103 100.216 11.2665 100.374 11.4748 100.535C11.6831 100.693 11.9388 100.839 12.242 100.974C12.5453 101.106 12.8973 101.212 13.298 101.294C13.6988 101.376 14.1497 101.417 14.6507 101.417H14.7061C15.207 101.417 15.6592 101.376 16.0626 101.294C16.4634 101.212 16.8167 101.106 17.1226 100.974C17.4285 100.839 17.6882 100.693 17.9018 100.535C18.118 100.374 18.2894 100.216 18.4159 100.06L18.8589 100.214C18.7561 100.402 18.5886 100.606 18.3566 100.827C18.1272 101.049 17.8372 101.26 17.4865 101.46C17.1384 101.661 16.7311 101.825 16.2644 101.955C15.7977 102.084 15.2756 102.148 14.6981 102.148ZM13.5709 98.6166H17V99.3522H12.7206V98.6561L13.5709 98.6166ZM14.6981 98.7668L14.6863 99.107C14.3936 99.1043 14.1233 99.0661 13.8755 98.9923C13.625 98.9185 13.4075 98.809 13.2229 98.664C13.0383 98.519 12.8959 98.3384 12.7958 98.1222C12.6929 97.906 12.6415 97.6555 12.6415 97.3707C12.6415 97.1703 12.6705 96.9857 12.7285 96.817C12.7839 96.6482 12.8722 96.5019 12.9935 96.378C13.1148 96.2541 13.2704 96.1578 13.4602 96.0893C13.65 96.0207 13.8794 95.9864 14.1484 95.9864H17V96.7181H14.184C13.9599 96.7181 13.7806 96.7563 13.6461 96.8328C13.5116 96.9066 13.4141 97.0121 13.3534 97.1492C13.2901 97.2863 13.2585 97.4472 13.2585 97.6317C13.2585 97.8479 13.2967 98.0286 13.3732 98.1736C13.4497 98.3186 13.5551 98.4346 13.6896 98.5216C13.8241 98.6086 13.9783 98.6719 14.1523 98.7115C14.3237 98.7484 14.5057 98.7668 14.6981 98.7668ZM14.2947 95.9943L14.445 96.4848C14.2104 96.4821 13.9849 96.4439 13.7687 96.3701C13.5525 96.2936 13.36 96.1842 13.1913 96.0418C13.0225 95.8968 12.8894 95.7188 12.7918 95.5079C12.6916 95.2969 12.6415 95.0557 12.6415 94.7841C12.6415 94.5547 12.6718 94.3517 12.7325 94.175C12.7931 93.9957 12.8867 93.8454 13.0133 93.7241C13.1372 93.6002 13.2967 93.5066 13.4918 93.4433C13.687 93.38 13.919 93.3484 14.1879 93.3484H17V94.084H14.18C13.9401 94.084 13.7542 94.1223 13.6224 94.1987C13.4879 94.2726 13.3943 94.378 13.3416 94.5151C13.2862 94.6496 13.2585 94.8104 13.2585 94.9977C13.2585 95.1585 13.2862 95.3009 13.3416 95.4248C13.3969 95.5487 13.4734 95.6529 13.5709 95.7373C13.6659 95.8216 13.7753 95.8862 13.8992 95.9311C14.0231 95.9732 14.155 95.9943 14.2947 95.9943ZM12.7206 89.4685V88.804H16.909C17.2861 88.804 17.6078 88.8805 17.8741 89.0334C18.1404 89.1863 18.3421 89.3999 18.4792 89.6741C18.6189 89.9457 18.6888 90.2595 18.6888 90.6154C18.6888 90.7631 18.6651 90.9371 18.6176 91.1375C18.5728 91.3353 18.495 91.5304 18.3843 91.7228C18.2762 91.9127 18.1298 92.0722 17.9453 92.2014L17.5102 91.8178C17.7264 91.6385 17.8767 91.4513 17.9611 91.2561C18.0455 91.0584 18.0876 90.8633 18.0876 90.6708C18.0876 90.4388 18.0441 90.2384 17.9571 90.0696C17.8701 89.9009 17.7409 89.7704 17.5695 89.6781C17.4008 89.5832 17.1925 89.5357 16.9446 89.5357H13.6619L12.7206 89.4685ZM14.9078 92.415H14.8247C14.4978 92.415 14.2011 92.3768 13.9348 92.3003C13.6659 92.2212 13.4352 92.1091 13.2427 91.9641C13.0502 91.8165 12.9025 91.6385 12.7997 91.4302C12.6942 91.2219 12.6415 90.9872 12.6415 90.7262C12.6415 90.4572 12.689 90.2226 12.7839 90.0222C12.8762 89.8191 13.012 89.6478 13.1913 89.508C13.3679 89.3656 13.5815 89.2536 13.832 89.1718C14.0825 89.0901 14.3659 89.0334 14.6823 89.0018H15.0462C15.36 89.0308 15.6421 89.0874 15.8926 89.1718C16.1431 89.2536 16.3566 89.3656 16.5333 89.508C16.71 89.6478 16.8458 89.8191 16.9407 90.0222C17.033 90.2252 17.0791 90.4625 17.0791 90.7341C17.0791 90.9898 17.025 91.2219 16.9169 91.4302C16.8088 91.6358 16.6572 91.8125 16.4621 91.9602C16.267 92.1078 16.0376 92.2212 15.7739 92.3003C15.5076 92.3768 15.2189 92.415 14.9078 92.415ZM14.8247 91.6833H14.9078C15.1213 91.6833 15.3217 91.6622 15.5089 91.62C15.6961 91.5752 15.8609 91.508 16.0033 91.4183C16.1457 91.326 16.2578 91.2087 16.3395 91.0663C16.4186 90.9239 16.4582 90.7539 16.4582 90.5561C16.4582 90.3135 16.4067 90.1131 16.3039 89.9549C16.2011 89.7967 16.0653 89.6715 15.8965 89.5792C15.7278 89.4843 15.5445 89.4104 15.3468 89.3577H14.3936C14.2486 89.3867 14.1088 89.4315 13.9744 89.4922C13.8373 89.5502 13.716 89.6267 13.6105 89.7216C13.5024 89.8139 13.4167 89.9286 13.3534 90.0657C13.2901 90.2028 13.2585 90.3636 13.2585 90.5482C13.2585 90.7486 13.3007 90.9213 13.3851 91.0663C13.4668 91.2087 13.5802 91.326 13.7252 91.4183C13.8676 91.508 14.0337 91.5752 14.2235 91.62C14.4107 91.6622 14.6111 91.6833 14.8247 91.6833ZM11.2414 85.1456L17.4944 87.5463V88.1751L11.2414 85.7705V85.1456ZM16.3791 80.7436H17V83.6229H16.3791V80.7436ZM11.2414 83.4726H17V84.2359H11.2414V83.4726ZM14.6586 78.2954H14.6981C15.2756 78.2954 15.7977 78.36 16.2644 78.4892C16.7311 78.6184 17.1384 78.7832 17.4865 78.9835C17.8372 79.1839 18.1272 79.3949 18.3566 79.6164C18.5886 79.8378 18.7561 80.0422 18.8589 80.2294L18.4159 80.3836C18.2973 80.2281 18.1312 80.0712 17.9176 79.913C17.7066 79.7548 17.4456 79.6084 17.1345 79.474C16.826 79.3395 16.47 79.2314 16.0666 79.1497C15.6605 79.0679 15.207 79.027 14.7061 79.027H14.6507C14.1497 79.027 13.6975 79.0706 13.2941 79.1576C12.888 79.2446 12.5308 79.358 12.2223 79.4977C11.9138 79.6348 11.6541 79.7825 11.4431 79.9407C11.2295 80.0962 11.0647 80.2439 10.9487 80.3836L10.5018 80.2294C10.6046 80.0422 10.7721 79.8378 11.0041 79.6164C11.2335 79.3949 11.5235 79.1839 11.8742 78.9835C12.2249 78.7832 12.6336 78.6184 13.1003 78.4892C13.5644 78.36 14.0838 78.2954 14.6586 78.2954Z" fill="white"/>
<path d="M134.016 233.093V238.851H133.265V233.093H134.016ZM135.867 233.093V233.717H131.418V233.093H135.867ZM137.406 234.572V238.851H136.67V234.572H137.406ZM136.615 233.437C136.615 233.318 136.651 233.218 136.722 233.136C136.796 233.054 136.904 233.013 137.046 233.013C137.186 233.013 137.293 233.054 137.366 233.136C137.443 233.218 137.481 233.318 137.481 233.437C137.481 233.55 137.443 233.648 137.366 233.729C137.293 233.808 137.186 233.848 137.046 233.848C136.904 233.848 136.796 233.808 136.722 233.729C136.651 233.648 136.615 233.55 136.615 233.437ZM139.308 235.422V238.851H138.573V234.572H139.269L139.308 235.422ZM139.158 236.549L138.818 236.537C138.821 236.245 138.859 235.975 138.933 235.727C139.006 235.476 139.116 235.259 139.261 235.074C139.406 234.889 139.587 234.747 139.803 234.647C140.019 234.544 140.269 234.493 140.554 234.493C140.755 234.493 140.939 234.522 141.108 234.58C141.277 234.635 141.423 234.723 141.547 234.845C141.671 234.966 141.767 235.122 141.836 235.311C141.904 235.501 141.938 235.731 141.938 236V238.851H141.207V236.035C141.207 235.811 141.169 235.632 141.092 235.497C141.018 235.363 140.913 235.265 140.776 235.205C140.639 235.141 140.478 235.11 140.293 235.11C140.077 235.11 139.896 235.148 139.751 235.224C139.606 235.301 139.49 235.406 139.403 235.541C139.316 235.675 139.253 235.829 139.213 236.004C139.177 236.175 139.158 236.357 139.158 236.549ZM141.931 236.146L141.44 236.296C141.443 236.062 141.481 235.836 141.555 235.62C141.631 235.404 141.741 235.211 141.883 235.042C142.028 234.874 142.206 234.741 142.417 234.643C142.628 234.543 142.869 234.493 143.141 234.493C143.37 234.493 143.573 234.523 143.75 234.584C143.929 234.644 144.079 234.738 144.201 234.864C144.325 234.988 144.418 235.148 144.482 235.343C144.545 235.538 144.577 235.77 144.577 236.039V238.851H143.841V236.031C143.841 235.791 143.803 235.605 143.726 235.474C143.652 235.339 143.547 235.245 143.41 235.193C143.275 235.137 143.114 235.11 142.927 235.11C142.766 235.11 142.624 235.137 142.5 235.193C142.376 235.248 142.272 235.325 142.188 235.422C142.103 235.517 142.039 235.626 141.994 235.75C141.952 235.874 141.931 236.006 141.931 236.146ZM147.46 238.93C147.162 238.93 146.892 238.88 146.649 238.78C146.409 238.677 146.202 238.533 146.028 238.349C145.857 238.164 145.725 237.945 145.633 237.692C145.54 237.439 145.494 237.162 145.494 236.862V236.696C145.494 236.348 145.546 236.038 145.648 235.766C145.751 235.492 145.891 235.26 146.068 235.07C146.244 234.88 146.445 234.737 146.669 234.639C146.893 234.541 147.125 234.493 147.365 234.493C147.671 234.493 147.934 234.545 148.156 234.651C148.38 234.756 148.563 234.904 148.706 235.094C148.848 235.281 148.953 235.503 149.022 235.758C149.091 236.011 149.125 236.288 149.125 236.589V236.917H145.929V236.32H148.393V236.265C148.383 236.075 148.343 235.89 148.275 235.711C148.209 235.532 148.103 235.384 147.958 235.268C147.813 235.152 147.615 235.094 147.365 235.094C147.199 235.094 147.046 235.129 146.906 235.201C146.766 235.269 146.646 235.372 146.546 235.509C146.446 235.646 146.368 235.814 146.313 236.011C146.257 236.209 146.23 236.437 146.23 236.696V236.862C146.23 237.065 146.257 237.256 146.313 237.435C146.371 237.612 146.454 237.767 146.562 237.902C146.673 238.036 146.806 238.142 146.961 238.218C147.12 238.295 147.299 238.333 147.499 238.333C147.758 238.333 147.977 238.28 148.156 238.175C148.335 238.069 148.492 237.928 148.627 237.752L149.069 238.104C148.977 238.243 148.86 238.377 148.717 238.503C148.575 238.63 148.4 238.733 148.191 238.812C147.986 238.891 147.742 238.93 147.46 238.93ZM151.961 236.549V236.51C151.961 235.935 152.025 235.416 152.154 234.951C152.284 234.485 152.448 234.076 152.649 233.725C152.849 233.375 153.06 233.085 153.282 232.855C153.503 232.623 153.707 232.456 153.895 232.353L154.049 232.835C153.893 232.954 153.735 233.118 153.574 233.326C153.416 233.534 153.27 233.79 153.135 234.093C153.003 234.396 152.897 234.748 152.815 235.149C152.733 235.55 152.692 236.001 152.692 236.502V236.557C152.692 237.058 152.733 237.51 152.815 237.914C152.897 238.315 153.003 238.668 153.135 238.974C153.27 239.28 153.416 239.539 153.574 239.753C153.735 239.969 153.893 240.141 154.049 240.267L153.895 240.71C153.707 240.607 153.503 240.44 153.282 240.208C153.06 239.978 152.849 239.688 152.649 239.338C152.448 238.99 152.284 238.582 152.154 238.116C152.025 237.649 151.961 237.127 151.961 236.549ZM155.496 232.776V238.851H154.765V232.776H155.496ZM155.322 236.549L155.018 236.537C155.021 236.245 155.064 235.975 155.148 235.727C155.233 235.476 155.351 235.259 155.504 235.074C155.657 234.889 155.839 234.747 156.05 234.647C156.264 234.544 156.5 234.493 156.758 234.493C156.969 234.493 157.159 234.522 157.328 234.58C157.496 234.635 157.64 234.725 157.759 234.849C157.88 234.973 157.972 235.133 158.036 235.331C158.099 235.526 158.131 235.765 158.131 236.047V238.851H157.395V236.039C157.395 235.815 157.362 235.636 157.296 235.501C157.23 235.364 157.134 235.265 157.007 235.205C156.881 235.141 156.725 235.11 156.541 235.11C156.359 235.11 156.193 235.148 156.042 235.224C155.895 235.301 155.767 235.406 155.659 235.541C155.553 235.675 155.47 235.829 155.409 236.004C155.351 236.175 155.322 236.357 155.322 236.549ZM159.032 236.759V236.668C159.032 236.359 159.077 236.073 159.167 235.81C159.256 235.543 159.386 235.313 159.554 235.118C159.723 234.92 159.927 234.767 160.167 234.659C160.407 234.548 160.676 234.493 160.974 234.493C161.275 234.493 161.545 234.548 161.785 234.659C162.028 234.767 162.233 234.92 162.402 235.118C162.573 235.313 162.704 235.543 162.794 235.81C162.883 236.073 162.928 236.359 162.928 236.668V236.759C162.928 237.067 162.883 237.354 162.794 237.617C162.704 237.881 162.573 238.112 162.402 238.309C162.233 238.504 162.029 238.657 161.789 238.768C161.552 238.876 161.283 238.93 160.982 238.93C160.682 238.93 160.411 238.876 160.171 238.768C159.931 238.657 159.726 238.504 159.554 238.309C159.386 238.112 159.256 237.881 159.167 237.617C159.077 237.354 159.032 237.067 159.032 236.759ZM159.764 236.668V236.759C159.764 236.973 159.789 237.174 159.839 237.364C159.889 237.551 159.964 237.717 160.065 237.862C160.167 238.007 160.295 238.122 160.448 238.206C160.601 238.288 160.779 238.329 160.982 238.329C161.183 238.329 161.358 238.288 161.508 238.206C161.661 238.122 161.788 238.007 161.888 237.862C161.988 237.717 162.063 237.551 162.113 237.364C162.166 237.174 162.192 236.973 162.192 236.759V236.668C162.192 236.457 162.166 236.258 162.113 236.071C162.063 235.881 161.987 235.713 161.884 235.568C161.784 235.421 161.657 235.305 161.504 235.22C161.354 235.136 161.177 235.094 160.974 235.094C160.774 235.094 160.597 235.136 160.444 235.22C160.294 235.305 160.167 235.421 160.065 235.568C159.964 235.713 159.889 235.881 159.839 236.071C159.789 236.258 159.764 236.457 159.764 236.668ZM166.464 237.862V234.572H167.2V238.851H166.5L166.464 237.862ZM166.602 236.961L166.907 236.953C166.907 237.237 166.877 237.501 166.816 237.744C166.758 237.984 166.663 238.192 166.531 238.369C166.399 238.545 166.227 238.684 166.013 238.784C165.799 238.881 165.54 238.93 165.234 238.93C165.026 238.93 164.834 238.9 164.66 238.839C164.489 238.779 164.341 238.685 164.217 238.558C164.094 238.432 163.997 238.267 163.929 238.064C163.863 237.861 163.83 237.617 163.83 237.332V234.572H164.562V237.34C164.562 237.533 164.583 237.692 164.625 237.819C164.67 237.943 164.729 238.042 164.803 238.116C164.879 238.187 164.964 238.237 165.056 238.266C165.151 238.295 165.248 238.309 165.349 238.309C165.66 238.309 165.906 238.25 166.088 238.131C166.27 238.01 166.401 237.848 166.48 237.645C166.561 237.439 166.602 237.211 166.602 236.961ZM169.047 235.244V238.851H168.315V234.572H169.027L169.047 235.244ZM170.383 234.548L170.379 235.228C170.319 235.215 170.261 235.207 170.205 235.205C170.153 235.199 170.092 235.197 170.023 235.197C169.855 235.197 169.706 235.223 169.577 235.276C169.447 235.329 169.338 235.402 169.248 235.497C169.159 235.592 169.087 235.706 169.035 235.837C168.985 235.967 168.952 236.109 168.936 236.265L168.73 236.383C168.73 236.125 168.755 235.882 168.805 235.655C168.858 235.429 168.938 235.228 169.047 235.054C169.155 234.878 169.292 234.741 169.458 234.643C169.627 234.543 169.827 234.493 170.059 234.493C170.112 234.493 170.172 234.499 170.241 234.512C170.31 234.523 170.357 234.535 170.383 234.548ZM173.551 237.716C173.551 237.611 173.528 237.513 173.48 237.423C173.435 237.331 173.342 237.248 173.199 237.174C173.06 237.098 172.849 237.032 172.567 236.976C172.329 236.926 172.114 236.867 171.922 236.798C171.732 236.73 171.57 236.647 171.435 236.549C171.304 236.452 171.202 236.337 171.131 236.205C171.06 236.073 171.024 235.919 171.024 235.742C171.024 235.574 171.061 235.414 171.135 235.264C171.211 235.114 171.318 234.98 171.455 234.864C171.595 234.748 171.762 234.657 171.958 234.592C172.153 234.526 172.37 234.493 172.61 234.493C172.953 234.493 173.246 234.553 173.488 234.675C173.731 234.796 173.917 234.958 174.046 235.161C174.175 235.361 174.24 235.584 174.24 235.829H173.508C173.508 235.711 173.472 235.596 173.401 235.485C173.333 235.372 173.231 235.278 173.097 235.205C172.965 235.131 172.803 235.094 172.61 235.094C172.407 235.094 172.242 235.125 172.116 235.189C171.992 235.249 171.901 235.327 171.843 235.422C171.787 235.517 171.76 235.617 171.76 235.723C171.76 235.802 171.773 235.873 171.799 235.936C171.828 235.997 171.878 236.054 171.95 236.106C172.021 236.156 172.121 236.204 172.25 236.249C172.379 236.294 172.544 236.338 172.745 236.383C173.095 236.462 173.384 236.557 173.611 236.668C173.837 236.779 174.006 236.914 174.117 237.075C174.228 237.236 174.283 237.431 174.283 237.661C174.283 237.848 174.244 238.019 174.164 238.175C174.088 238.33 173.976 238.465 173.828 238.578C173.683 238.689 173.509 238.776 173.306 238.839C173.106 238.9 172.88 238.93 172.63 238.93C172.253 238.93 171.934 238.863 171.673 238.729C171.412 238.594 171.214 238.42 171.079 238.206C170.945 237.993 170.878 237.767 170.878 237.53H171.613C171.624 237.731 171.682 237.89 171.787 238.009C171.893 238.125 172.022 238.208 172.175 238.258C172.328 238.305 172.48 238.329 172.63 238.329C172.83 238.329 172.998 238.303 173.132 238.25C173.269 238.197 173.373 238.125 173.445 238.032C173.516 237.94 173.551 237.835 173.551 237.716ZM176.929 236.51V236.549C176.929 237.127 176.864 237.649 176.735 238.116C176.606 238.582 176.441 238.99 176.241 239.338C176.04 239.688 175.83 239.978 175.608 240.208C175.387 240.44 175.182 240.607 174.995 240.71L174.841 240.267C174.996 240.148 175.153 239.982 175.311 239.769C175.47 239.558 175.616 239.297 175.75 238.986C175.885 238.677 175.993 238.321 176.075 237.918C176.156 237.512 176.197 237.058 176.197 236.557V236.502C176.197 236.001 176.154 235.549 176.067 235.145C175.98 234.739 175.866 234.382 175.727 234.073C175.59 233.765 175.442 233.505 175.284 233.294C175.128 233.081 174.981 232.916 174.841 232.8L174.995 232.353C175.182 232.456 175.387 232.623 175.608 232.855C175.83 233.085 176.04 233.375 176.241 233.725C176.441 234.076 176.606 234.485 176.735 234.951C176.864 235.416 176.929 235.935 176.929 236.51Z" fill="white"/>
<path d="M55.1228 214.553V215.431C55.1228 215.903 55.0806 216.301 54.9962 216.626C54.9119 216.95 54.7906 217.211 54.6324 217.409C54.4742 217.606 54.283 217.75 54.0589 217.84C53.8374 217.927 53.5869 217.97 53.3074 217.97C53.0859 217.97 52.8816 217.943 52.6944 217.887C52.5072 217.832 52.3384 217.744 52.1881 217.622C52.0405 217.498 51.9139 217.337 51.8084 217.14C51.703 216.942 51.6226 216.702 51.5672 216.42C51.5118 216.138 51.4841 215.808 51.4841 215.431V214.553C51.4841 214.081 51.5263 213.686 51.6107 213.367C51.6977 213.048 51.8203 212.792 51.9785 212.599C52.1367 212.404 52.3266 212.264 52.548 212.18C52.7722 212.096 53.0227 212.054 53.2995 212.054C53.5236 212.054 53.7293 212.081 53.9165 212.137C54.1063 212.189 54.2751 212.275 54.4228 212.394C54.5704 212.51 54.6957 212.665 54.7985 212.86C54.904 213.053 54.9844 213.289 55.0397 213.568C55.0951 213.848 55.1228 214.176 55.1228 214.553ZM54.3872 215.55V214.431C54.3872 214.172 54.3713 213.945 54.3397 213.75C54.3107 213.552 54.2672 213.384 54.2092 213.244C54.1512 213.104 54.0773 212.991 53.9877 212.904C53.9007 212.817 53.7992 212.754 53.6832 212.714C53.5698 212.672 53.4419 212.651 53.2995 212.651C53.1255 212.651 52.9712 212.684 52.8368 212.75C52.7023 212.813 52.5889 212.914 52.4966 213.054C52.407 213.194 52.3384 213.377 52.291 213.604C52.2435 213.831 52.2198 214.106 52.2198 214.431V215.55C52.2198 215.808 52.2343 216.036 52.2633 216.234C52.2949 216.432 52.3411 216.603 52.4017 216.748C52.4624 216.891 52.5362 217.008 52.6232 217.1C52.7102 217.192 52.8104 217.261 52.9238 217.306C53.0398 217.348 53.1677 217.369 53.3074 217.369C53.4867 217.369 53.6436 217.335 53.7781 217.266C53.9125 217.198 54.0246 217.091 54.1143 216.946C54.2065 216.798 54.2751 216.61 54.3199 216.38C54.3647 216.148 54.3872 215.871 54.3872 215.55Z" fill="white"/>
<path d="M104.133 212.101V217.891H103.401V213.015L101.926 213.552V212.892L104.018 212.101H104.133Z" fill="white"/>
<path d="M204.856 214.652H205.378C205.634 214.652 205.845 214.61 206.011 214.525C206.18 214.438 206.305 214.321 206.387 214.173C206.471 214.023 206.513 213.854 206.513 213.667C206.513 213.446 206.476 213.26 206.402 213.11C206.329 212.959 206.218 212.846 206.07 212.769C205.923 212.693 205.735 212.655 205.509 212.655C205.303 212.655 205.121 212.696 204.963 212.777C204.807 212.856 204.685 212.97 204.595 213.117C204.508 213.265 204.464 213.439 204.464 213.639H203.733C203.733 213.347 203.807 213.081 203.954 212.841C204.102 212.601 204.309 212.409 204.575 212.267C204.844 212.125 205.155 212.054 205.509 212.054C205.857 212.054 206.161 212.115 206.422 212.239C206.683 212.361 206.886 212.543 207.031 212.785C207.176 213.025 207.249 213.324 207.249 213.683C207.249 213.828 207.215 213.984 207.146 214.15C207.08 214.313 206.976 214.466 206.834 214.608C206.694 214.751 206.512 214.868 206.288 214.96C206.064 215.05 205.795 215.095 205.481 215.095H204.856V214.652ZM204.856 215.253V214.814H205.481C205.847 214.814 206.151 214.858 206.391 214.945C206.631 215.032 206.819 215.148 206.956 215.293C207.096 215.438 207.193 215.597 207.249 215.771C207.307 215.943 207.336 216.114 207.336 216.285C207.336 216.554 207.29 216.793 207.197 217.001C207.108 217.21 206.98 217.386 206.814 217.531C206.65 217.676 206.458 217.786 206.236 217.86C206.015 217.933 205.774 217.97 205.513 217.97C205.262 217.97 205.026 217.935 204.805 217.864C204.586 217.792 204.392 217.689 204.223 217.555C204.054 217.418 203.923 217.25 203.828 217.053C203.733 216.852 203.685 216.624 203.685 216.368H204.417C204.417 216.569 204.46 216.744 204.548 216.895C204.637 217.045 204.764 217.162 204.927 217.247C205.093 217.328 205.288 217.369 205.513 217.369C205.737 217.369 205.929 217.331 206.09 217.254C206.253 217.175 206.379 217.057 206.466 216.898C206.555 216.74 206.6 216.541 206.6 216.301C206.6 216.061 206.55 215.865 206.45 215.712C206.35 215.556 206.207 215.442 206.023 215.368C205.841 215.291 205.626 215.253 205.378 215.253H204.856Z" fill="white"/>
<path d="M261.95 215.953V216.554H257.789V216.123L260.368 212.133H260.965L260.324 213.287L258.62 215.953H261.95ZM261.147 212.133V217.891H260.415V212.133H261.147Z" fill="white"/>
<path d="M155.721 217.29V217.891H151.952V217.365L153.838 215.265C154.07 215.007 154.25 214.788 154.376 214.608C154.505 214.427 154.595 214.264 154.645 214.122C154.698 213.977 154.724 213.829 154.724 213.679C154.724 213.489 154.685 213.318 154.606 213.165C154.529 213.009 154.416 212.885 154.265 212.793C154.115 212.701 153.933 212.655 153.72 212.655C153.464 212.655 153.25 212.705 153.079 212.805C152.91 212.903 152.784 213.04 152.699 213.216C152.615 213.393 152.573 213.596 152.573 213.825H151.841C151.841 213.501 151.912 213.204 152.055 212.935C152.197 212.667 152.408 212.453 152.687 212.295C152.967 212.134 153.311 212.054 153.72 212.054C154.084 212.054 154.395 212.118 154.653 212.247C154.911 212.374 155.109 212.553 155.246 212.785C155.386 213.015 155.456 213.284 155.456 213.592C155.456 213.761 155.427 213.932 155.369 214.106C155.314 214.278 155.236 214.449 155.136 214.62C155.038 214.792 154.923 214.96 154.792 215.127C154.662 215.293 154.524 215.456 154.376 215.617L152.834 217.29H155.721Z" fill="white"/>
<path d="M32.0429 186.992V192.782H31.3112V187.905L29.836 188.443V187.783L31.9282 186.992H32.0429Z" fill="white"/>
<path d="M33.4114 154.92V155.521H29.6422V154.995L31.5288 152.895C31.7608 152.637 31.9401 152.418 32.0667 152.238C32.1958 152.056 32.2855 151.894 32.3356 151.752C32.3883 151.607 32.4147 151.459 32.4147 151.309C32.4147 151.119 32.3751 150.948 32.296 150.795C32.2196 150.639 32.1062 150.515 31.9559 150.423C31.8056 150.331 31.6237 150.285 31.4101 150.285C31.1543 150.285 30.9408 150.335 30.7694 150.435C30.6006 150.532 30.4741 150.67 30.3897 150.846C30.3053 151.023 30.2631 151.226 30.2631 151.455H29.5314C29.5314 151.131 29.6026 150.834 29.745 150.565C29.8874 150.296 30.0983 150.083 30.3778 149.925C30.6573 149.764 31.0014 149.683 31.4101 149.683C31.774 149.683 32.0851 149.748 32.3435 149.877C32.6019 150.004 32.7997 150.183 32.9368 150.415C33.0765 150.644 33.1464 150.913 33.1464 151.222C33.1464 151.391 33.1174 151.562 33.0594 151.736C33.004 151.907 32.9262 152.079 32.826 152.25C32.7285 152.422 32.6138 152.59 32.4819 152.756C32.3527 152.923 32.2143 153.086 32.0667 153.247L30.5242 154.92H33.4114Z" fill="white"/>
<path d="M33.53 117.943V118.545H29.3693V118.114L31.948 114.123H32.5452L31.9045 115.278L30.1999 117.943H33.53ZM32.7271 114.123V119.881H31.9955V114.123H32.7271Z" fill="white"/>
<path d="M33.269 82.6825C33.269 83.0332 33.1873 83.3311 33.0238 83.5764C32.8629 83.8189 32.6441 84.0035 32.3672 84.1301C32.093 84.2566 31.7832 84.3199 31.4378 84.3199C31.0924 84.3199 30.7812 84.2566 30.5044 84.1301C30.2275 84.0035 30.0087 83.8189 29.8479 83.5764C29.687 83.3311 29.6066 83.0332 29.6066 82.6825C29.6066 82.4531 29.6501 82.2435 29.7371 82.0537C29.8268 81.8612 29.952 81.6937 30.1128 81.5514C30.2763 81.409 30.4688 81.2996 30.6903 81.2231C30.9144 81.144 31.1609 81.1044 31.4299 81.1044C31.7832 81.1044 32.0983 81.173 32.3751 81.3101C32.652 81.4446 32.8695 81.6305 33.0277 81.8678C33.1886 82.1051 33.269 82.3767 33.269 82.6825ZM32.5333 82.6667C32.5333 82.4531 32.4872 82.2646 32.3949 82.1011C32.3026 81.935 32.1734 81.8058 32.0073 81.7135C31.8412 81.6212 31.6487 81.5751 31.4299 81.5751C31.2058 81.5751 31.012 81.6212 30.8485 81.7135C30.6876 81.8058 30.5624 81.935 30.4728 82.1011C30.3831 82.2646 30.3383 82.4531 30.3383 82.6667C30.3383 82.8882 30.3818 83.078 30.4688 83.2362C30.5584 83.3918 30.685 83.5118 30.8485 83.5961C31.0146 83.6779 31.211 83.7187 31.4378 83.7187C31.6646 83.7187 31.8597 83.6779 32.0231 83.5961C32.1866 83.5118 32.3119 83.3918 32.3989 83.2362C32.4885 83.078 32.5333 82.8882 32.5333 82.6667ZM33.1345 79.9812C33.1345 80.2607 33.0607 80.5125 32.913 80.7366C32.7654 80.9607 32.5637 81.1374 32.3079 81.2666C32.0521 81.3958 31.7621 81.4604 31.4378 81.4604C31.1082 81.4604 30.8142 81.3958 30.5558 81.2666C30.3 81.1374 30.0997 80.9607 29.9546 80.7366C29.8096 80.5125 29.7371 80.2607 29.7371 79.9812C29.7371 79.6463 29.8096 79.3616 29.9546 79.1269C30.1023 78.8922 30.304 78.7129 30.5598 78.589C30.8155 78.4651 31.1069 78.4031 31.4338 78.4031C31.7634 78.4031 32.0561 78.4651 32.3119 78.589C32.5676 78.7129 32.768 78.8922 32.913 79.1269C33.0607 79.3616 33.1345 79.6463 33.1345 79.9812ZM32.4028 79.9931C32.4028 79.8006 32.362 79.6305 32.2802 79.4829C32.1985 79.3352 32.0851 79.2192 31.9401 79.1348C31.7951 79.0478 31.6263 79.0043 31.4338 79.0043C31.2414 79.0043 31.0726 79.0452 30.9276 79.1269C30.7852 79.206 30.6731 79.3194 30.5914 79.467C30.5123 79.6147 30.4728 79.79 30.4728 79.9931C30.4728 80.1908 30.5123 80.3635 30.5914 80.5112C30.6731 80.6588 30.7865 80.7735 30.9315 80.8553C31.0766 80.937 31.2453 80.9779 31.4378 80.9779C31.6303 80.9779 31.7977 80.937 31.9401 80.8553C32.0851 80.7735 32.1985 80.6588 32.2802 80.5112C32.362 80.3635 32.4028 80.1908 32.4028 79.9931Z" fill="white"/>
<path d="M27.1835 45.2416V51.0318H26.4519V46.1552L24.9766 46.6931V46.0326L27.0688 45.2416H27.1835ZM32.1432 45.2653H32.2065V45.8863H32.1432C31.7556 45.8863 31.4313 45.9496 31.1703 46.0761C30.9092 46.2 30.7022 46.3675 30.5493 46.5784C30.3964 46.7867 30.2856 47.0214 30.2171 47.2824C30.1512 47.5435 30.1182 47.8084 30.1182 48.0774V48.9238C30.1182 49.1795 30.1485 49.4063 30.2092 49.604C30.2698 49.7992 30.3529 49.964 30.4583 50.0984C30.5638 50.2329 30.6825 50.3344 30.8143 50.403C30.9488 50.4715 31.0885 50.5058 31.2335 50.5058C31.4023 50.5058 31.5526 50.4742 31.6844 50.4109C31.8163 50.345 31.927 50.254 32.0166 50.138C32.1089 50.0193 32.1788 49.8796 32.2263 49.7187C32.2737 49.5579 32.2975 49.3812 32.2975 49.1888C32.2975 49.0174 32.2764 48.8526 32.2342 48.6944C32.192 48.5335 32.1274 48.3912 32.0404 48.2672C31.9534 48.1407 31.8439 48.0418 31.7121 47.9706C31.5829 47.8968 31.4287 47.8599 31.2494 47.8599C31.0463 47.8599 30.8565 47.91 30.6798 48.0102C30.5058 48.1077 30.3621 48.2369 30.2487 48.3977C30.138 48.556 30.0747 48.7287 30.0589 48.9159L29.6713 48.9119C29.7082 48.6166 29.7768 48.3648 29.877 48.1565C29.9798 47.9456 30.1063 47.7742 30.2566 47.6423C30.4096 47.5079 30.5796 47.4103 30.7668 47.3497C30.9567 47.2864 31.1571 47.2547 31.368 47.2547C31.6554 47.2547 31.9033 47.3088 32.1116 47.4169C32.3199 47.525 32.4913 47.67 32.6257 47.8519C32.7602 48.0312 32.8591 48.2343 32.9224 48.461C32.9883 48.6852 33.0212 48.9159 33.0212 49.1532C33.0212 49.4247 32.983 49.6792 32.9065 49.9165C32.8301 50.1538 32.7154 50.3621 32.5625 50.5414C32.4122 50.7207 32.2263 50.8604 32.0048 50.9606C31.7833 51.0608 31.5262 51.1109 31.2335 51.1109C30.9224 51.1109 30.6508 51.0477 30.4188 50.9211C30.1868 50.7919 29.9943 50.6205 29.8414 50.4069C29.6884 50.1934 29.5737 49.956 29.4973 49.695C29.4208 49.434 29.3826 49.169 29.3826 48.9V48.556C29.3826 48.1499 29.4234 47.7518 29.5052 47.3615C29.5869 46.9713 29.728 46.618 29.9284 46.3016C30.1314 45.9852 30.4122 45.7333 30.7708 45.5461C31.1294 45.3589 31.5869 45.2653 32.1432 45.2653Z" fill="white"/>
<line x1="53.9166" y1="47.8426" x2="261.277" y2="189.593" stroke="white" stroke-width="1.62"/>
<circle cx="260.821" cy="190.261" r="3.24" fill="white"/>
<circle cx="206.55" cy="152.191" r="3.24" fill="white"/>
<circle cx="154.71" cy="117.361" r="3.24" fill="white"/>
<circle cx="104.49" cy="81.721" r="3.24" fill="white"/>
<circle cx="53.4602" cy="48.5111" r="3.24" fill="white"/>
</svg>
